<?xml version="1.0" encoding="utf-8"?>
<!-- Generator: Adobe Illustrator 20.0.0, SVG Export Plug-In . SVG Version: 6.00 Build 0)  -->
<svg id="svgMask" version="1.1"  xmlns="http://www.w3.org/2000/svg" xmlns:xlink="http://www.w3.org/1999/xlink" x="0px" y="0px"
	 viewBox="0 0 1500 792" style="enable-background:new 0 0 1500 792;" xml:space="preserve">
      <!--<mask id="svgMask" maskUnits="objectBoundingBox" >-->
  <style type="text/css">
	.st0{enable-background:new    ;}
	.st1{fill:#FFFFFF;}
</style>
<g id="Layer_1_1_">
	<g id="t1" class="st0">
		<path class="st1" d="M36.2,489.5V299.3h61.6c23.4,0,38.6,1,45.7,2.9c10.9,2.9,20,9.1,27.4,18.6c7.4,9.6,11,21.9,11,37
			c0,11.7-2.1,21.5-6.4,29.5c-4.2,8-9.6,14.2-16.2,18.8c-6.5,4.5-13.2,7.5-19.9,9c-9.2,1.8-22.4,2.7-39.8,2.7h-25v71.8H36.2z
			 M74.6,331.4v54h21c15.1,0,25.3-1,30.4-3c5.1-2,9.1-5.1,12-9.3c2.9-4.2,4.3-9.2,4.3-14.8c0-6.9-2-12.6-6.1-17.1
			c-4.1-4.5-9.2-7.3-15.4-8.4c-4.6-0.9-13.8-1.3-27.6-1.3H74.6z"/>
		<path class="st1" d="M213.2,299.3h38.4v103c0,16.4,0.5,26.9,1.4,31.8c1.6,7.8,5.6,14,11.7,18.8c6.2,4.7,14.6,7.1,25.4,7.1
			c10.9,0,19.1-2.2,24.7-6.7c5.5-4.5,8.9-9.9,10-16.4c1.1-6.5,1.7-17.3,1.7-32.3V299.3h38.4v99.9c0,22.8-1,39-3.1,48.4
			c-2.1,9.4-5.9,17.4-11.5,23.9s-13,11.7-22.4,15.5c-9.3,3.8-21.5,5.8-36.6,5.8c-18.2,0-31.9-2.1-41.3-6.3
			c-9.4-4.2-16.8-9.6-22.3-16.3c-5.5-6.7-9-13.7-10.8-21.1c-2.5-10.9-3.8-27-3.8-48.3V299.3z"/>
		<path class="st1" d="M405.3,489.5V299.3H467c23.4,0,38.6,1,45.7,2.9c10.9,2.9,20,9.1,27.4,18.6c7.4,9.6,11,21.9,11,37
			c0,11.7-2.1,21.5-6.4,29.5c-4.2,8-9.6,14.2-16.2,18.8c-6.5,4.5-13.2,7.5-19.9,9c-9.2,1.8-22.4,2.7-39.8,2.7h-25v71.8H405.3z
			 M443.8,331.4v54h21c15.1,0,25.3-1,30.4-3c5.1-2,9.1-5.1,12-9.3c2.9-4.2,4.3-9.2,4.3-14.8c0-6.9-2-12.6-6.1-17.1
			c-4.1-4.5-9.2-7.3-15.4-8.4c-4.6-0.9-13.8-1.3-27.6-1.3H443.8z"/>
		<path class="st1" d="M582.3,299.3h38.4v103c0,16.4,0.5,26.9,1.4,31.8c1.6,7.8,5.6,14,11.7,18.8c6.2,4.7,14.6,7.1,25.4,7.1
			c10.9,0,19.1-2.2,24.7-6.7c5.5-4.5,8.9-9.9,10-16.4c1.1-6.5,1.7-17.3,1.7-32.3V299.3H734v99.9c0,22.8-1,39-3.1,48.4
			c-2.1,9.4-5.9,17.4-11.5,23.9c-5.6,6.5-13,11.7-22.4,15.5c-9.3,3.8-21.5,5.8-36.6,5.8c-18.2,0-31.9-2.1-41.3-6.3
			c-9.4-4.2-16.8-9.6-22.3-16.3c-5.5-6.7-9-13.7-10.8-21.1c-2.5-10.9-3.8-27-3.8-48.3V299.3z"/>
		<path class="st1" d="M774.9,489.5V299.3h37.4l77.9,127v-127h35.7v190.2h-38.5l-76.7-124.1v124.1H774.9z"/>
		<path class="st1" d="M949.9,489.5v-34.6l99.9-123.4h-88.6v-32.2h139.2v29.8L996.3,457.4h108.2v32.1H949.9z"/>
		<path class="st1" d="M1127.6,489.5V299.3h38.4v190.2H1127.6z"/>
	</g>
</g>
  <!--</mask>-->
</svg>
